<svg width="41" height="40" viewBox="0 0 41 40" fill="none" xmlns="http://www.w3.org/2000/svg">
<circle cx="20.2761" cy="20" r="20" fill="#F8B235"/>
<path d="M18.5695 13.1737C18.5695 12.2311 19.3336 11.4671 20.2761 11.4671C21.2186 11.4671 21.9827 12.2311 21.9827 13.1737V27.006C21.9827 27.9485 21.2186 28.7126 20.2761 28.7126C19.3336 28.7126 18.5695 27.9485 18.5695 27.006V13.1737Z" fill="white" fill-opacity="0.5"/>
<path d="M13.36 21.7964C12.4174 21.7964 11.6534 21.0323 11.6534 20.0898C11.6534 19.1473 12.4174 18.3832 13.36 18.3832H27.1923C28.1348 18.3832 28.8989 19.1473 28.8989 20.0898C28.8989 21.0323 28.1348 21.7964 27.1923 21.7964H13.36Z" fill="white" fill-opacity="0.5"/>
<path d="M15.5156 8.59281C15.5156 9.58494 14.7114 10.3892 13.7192 10.3892C12.7271 10.3892 11.9228 9.58494 11.9228 8.59281C11.9228 7.60069 12.7271 6.79641 13.7192 6.79641C14.7114 6.79641 15.5156 7.60069 15.5156 8.59281Z" fill="white" fill-opacity="0.5"/>
<path d="M10.6653 13.4431C10.6653 14.4352 9.86107 15.2395 8.86894 15.2395C7.87681 15.2395 7.07253 14.4352 7.07253 13.4431C7.07253 12.451 7.87681 11.6467 8.86894 11.6467C9.86107 11.6467 10.6653 12.451 10.6653 13.4431Z" fill="white" fill-opacity="0.5"/>
<path d="M10.6653 26.7365C10.6653 27.7287 9.86107 28.5329 8.86894 28.5329C7.87681 28.5329 7.07253 27.7287 7.07253 26.7365C7.07253 25.7444 7.87681 24.9401 8.86894 24.9401C9.86107 24.9401 10.6653 25.7444 10.6653 26.7365Z" fill="white" fill-opacity="0.5"/>
<path d="M15.5156 31.5868C15.5156 32.579 14.7114 33.3832 13.7192 33.3832C12.7271 33.3832 11.9228 32.579 11.9228 31.5868C11.9228 30.5947 12.7271 29.7904 13.7192 29.7904C14.7114 29.7904 15.5156 30.5947 15.5156 31.5868Z" fill="white" fill-opacity="0.5"/>
<path d="M22.1624 33.2036C22.1624 34.1957 21.3581 35 20.3659 35C19.3738 35 18.5695 34.1957 18.5695 33.2036C18.5695 32.2115 19.3738 31.4072 20.3659 31.4072C21.3581 31.4072 22.1624 32.2115 22.1624 33.2036Z" fill="white" fill-opacity="0.5"/>
<path d="M28.8091 31.4072C28.8091 32.3993 28.0048 33.2036 27.0127 33.2036C26.0205 33.2036 25.2162 32.3993 25.2162 31.4072C25.2162 30.4151 26.0205 29.6108 27.0127 29.6108C28.0048 29.6108 28.8091 30.4151 28.8091 31.4072Z" fill="white" fill-opacity="0.5"/>
<path d="M33.6594 26.7365C33.6594 27.7287 32.8551 28.5329 31.863 28.5329C30.8708 28.5329 30.0665 27.7287 30.0665 26.7365C30.0665 25.7444 30.8708 24.9401 31.863 24.9401C32.8551 24.9401 33.6594 25.7444 33.6594 26.7365Z" fill="white" fill-opacity="0.5"/>
<path d="M35.2761 20.0898C35.2761 21.0819 34.4718 21.8862 33.4797 21.8862C32.4876 21.8862 31.6833 21.0819 31.6833 20.0898C31.6833 19.0977 32.4876 18.2934 33.4797 18.2934C34.4718 18.2934 35.2761 19.0977 35.2761 20.0898Z" fill="white" fill-opacity="0.5"/>
<path d="M33.4797 13.4431C33.4797 14.4352 32.6754 15.2395 31.6833 15.2395C30.6912 15.2395 29.8869 14.4352 29.8869 13.4431C29.8869 12.451 30.6912 11.6467 31.6833 11.6467C32.6754 11.6467 33.4797 12.451 33.4797 13.4431Z" fill="white" fill-opacity="0.5"/>
<path d="M28.8091 8.59281C28.8091 9.58494 28.0048 10.3892 27.0127 10.3892C26.0205 10.3892 25.2162 9.58494 25.2162 8.59281C25.2162 7.60069 26.0205 6.79641 27.0127 6.79641C28.0048 6.79641 28.8091 7.60069 28.8091 8.59281Z" fill="white" fill-opacity="0.5"/>
<path d="M22.1624 6.79641C22.1624 7.78854 21.3581 8.59281 20.3659 8.59281C19.3738 8.59281 18.5695 7.78854 18.5695 6.79641C18.5695 5.80428 19.3738 5 20.3659 5C21.3581 5 22.1624 5.80428 22.1624 6.79641Z" fill="white" fill-opacity="0.5"/>
<path d="M8.86894 20.0898C8.86894 21.0819 8.06466 21.8862 7.07253 21.8862C6.0804 21.8862 5.27612 21.0819 5.27612 20.0898C5.27612 19.0977 6.0804 18.2934 7.07253 18.2934C8.06466 18.2934 8.86894 19.0977 8.86894 20.0898Z" fill="white" fill-opacity="0.5"/>
</svg>
