<svg width="147" height="51" viewBox="0 0 147 51" fill="none" xmlns="http://www.w3.org/2000/svg">
<rect x="7.53711" y="16.1133" width="20.4453" height="3.84853" rx="1.92426" fill="#7C8285"/>
<rect x="15.875" y="28.2217" width="20.4453" height="3.84853" rx="1.92426" transform="rotate(-90 15.875 28.2217)" fill="#7C8285"/>
<circle cx="18.1199" cy="2.1648" r="2.1648" fill="#332783"/>
<circle cx="26.0574" cy="4.33276" r="2.1648" fill="#951A80"/>
<circle cx="31.6707" cy="10.1843" r="2.1648" fill="#E6007F"/>
<circle cx="33.8347" cy="18.0437" r="2.1648" fill="#E83129"/>
<circle cx="31.9109" cy="26.0593" r="2.1648" fill="#E84E1C"/>
<circle cx="26.0574" cy="31.6697" r="2.1648" fill="#F8B235"/>
<circle cx="18.1199" cy="33.8416" r="2.1648" fill="#F8B235"/>
<circle cx="10.1824" cy="31.9148" r="2.1648" fill="#FBEA09"/>
<circle cx="4.32886" cy="26.1355" r="2.1648" fill="#DDDC00"/>
<circle cx="2.1648" cy="18.1199" r="2.1648" fill="#95C21F"/>
<circle cx="4.24878" cy="10.1843" r="2.1648" fill="#33AD67"/>
<circle cx="10.1824" cy="4.33276" r="2.1648" fill="#009EE3"/>
<rect width="125" height="28" transform="translate(22 23)" fill="white"/>
<path d="M30.774 35.29C30.1207 35.29 29.5047 35.1687 28.926 34.926C28.3567 34.674 27.848 34.324 27.4 33.876C26.9613 33.4187 26.616 32.882 26.364 32.266C26.1213 31.6407 26 30.9453 26 30.18C26 29.4893 26.1213 28.8453 26.364 28.248C26.616 27.6507 26.966 27.1233 27.414 26.666C27.8713 26.2087 28.3987 25.854 28.996 25.602C29.6027 25.3407 30.256 25.21 30.956 25.21C31.8707 25.21 32.6733 25.406 33.364 25.798C34.064 26.19 34.5867 26.7173 34.932 27.38L33.224 28.668C33 28.2293 32.6733 27.884 32.244 27.632C31.8147 27.38 31.3573 27.254 30.872 27.254C30.368 27.254 29.9247 27.3893 29.542 27.66C29.1593 27.9213 28.8607 28.2807 28.646 28.738C28.4313 29.1953 28.324 29.704 28.324 30.264C28.324 30.8333 28.436 31.3467 28.66 31.804C28.884 32.252 29.192 32.6067 29.584 32.868C29.9853 33.12 30.4473 33.246 30.97 33.246C31.866 33.246 32.6733 32.8353 33.392 32.014V31.692H31.46V30.026H35.296V35.22H33.392V34.24C32.636 34.94 31.7633 35.29 30.774 35.29Z" fill="#F8B235"/>
<path d="M40.1459 35.36C39.3152 35.36 38.6059 35.1873 38.0179 34.842C37.4299 34.4967 36.9772 34.0393 36.6599 33.47C36.3519 32.9007 36.1979 32.2847 36.1979 31.622C36.1979 30.9127 36.3519 30.264 36.6599 29.676C36.9679 29.088 37.4159 28.6167 38.0039 28.262C38.5919 27.9073 39.3059 27.73 40.1459 27.73C40.9766 27.73 41.6859 27.9073 42.2739 28.262C42.8619 28.6167 43.3052 29.0833 43.6039 29.662C43.9119 30.2407 44.0659 30.8613 44.0659 31.524C44.0659 31.7947 44.0472 32.0327 44.0099 32.238H38.5779C38.6152 32.7327 38.7926 33.1107 39.1099 33.372C39.4366 33.624 39.8052 33.75 40.2159 33.75C40.5426 33.75 40.8552 33.6707 41.1539 33.512C41.4526 33.3533 41.6579 33.1387 41.7699 32.868L43.6739 33.4C43.3846 33.9787 42.9319 34.45 42.3159 34.814C41.7092 35.178 40.9859 35.36 40.1459 35.36ZM38.5219 30.866H41.7139C41.6672 30.3993 41.4946 30.0307 41.1959 29.76C40.9066 29.48 40.5472 29.34 40.1179 29.34C39.6886 29.34 39.3246 29.48 39.0259 29.76C38.7366 30.04 38.5686 30.4087 38.5219 30.866Z" fill="#F8B235"/>
<path d="M47.8951 35.36C47.2605 35.36 46.6445 35.2573 46.0471 35.052C45.4591 34.8373 44.9598 34.534 44.5491 34.142L45.3191 32.728C46.2245 33.3907 47.0598 33.722 47.8251 33.722C48.1145 33.722 48.3385 33.6753 48.4971 33.582C48.6558 33.4887 48.7351 33.344 48.7351 33.148C48.7351 32.9427 48.6278 32.798 48.4131 32.714C48.1985 32.6207 47.8811 32.5133 47.4611 32.392C46.9011 32.2053 46.4345 32.0233 46.0611 31.846C45.6878 31.6687 45.4078 31.454 45.2211 31.202C45.0345 30.95 44.9411 30.614 44.9411 30.194C44.9411 29.4567 45.2165 28.864 45.7671 28.416C46.3178 27.9587 47.0645 27.73 48.0071 27.73C48.5111 27.73 49.0011 27.8093 49.4771 27.968C49.9625 28.1267 50.4151 28.3927 50.8351 28.766L49.9671 30.166C49.5471 29.8767 49.1738 29.6667 48.8471 29.536C48.5205 29.4053 48.2031 29.34 47.8951 29.34C47.6525 29.34 47.4471 29.3867 47.2791 29.48C47.1111 29.564 47.0271 29.7133 47.0271 29.928C47.0271 30.1333 47.1205 30.2873 47.3071 30.39C47.4938 30.4833 47.7831 30.586 48.1751 30.698C48.7725 30.8753 49.2718 31.0573 49.6731 31.244C50.0838 31.4213 50.3871 31.6453 50.5831 31.916C50.7885 32.1773 50.8911 32.5273 50.8911 32.966C50.8911 33.7127 50.6205 34.3007 50.0791 34.73C49.5378 35.15 48.8098 35.36 47.8951 35.36Z" fill="#F8B235"/>
<path d="M51.5781 33.022C51.5781 32.5367 51.7134 32.112 51.9841 31.748C52.2548 31.384 52.6281 31.0993 53.1041 30.894C53.5801 30.6793 54.1261 30.572 54.7421 30.572C55.0408 30.572 55.3348 30.6 55.6241 30.656C55.9134 30.7027 56.1654 30.7727 56.3801 30.866V30.544C56.3801 29.7133 55.8901 29.298 54.9101 29.298C54.4994 29.298 54.1121 29.368 53.7481 29.508C53.3934 29.648 53.0154 29.8487 52.6141 30.11L51.9421 28.682C52.9128 28.0473 53.9768 27.73 55.1341 27.73C56.2354 27.73 57.0894 27.996 57.6961 28.528C58.3121 29.0507 58.6201 29.8113 58.6201 30.81V32.728C58.6201 32.952 58.6528 33.1107 58.7181 33.204C58.7928 33.2973 58.9188 33.3487 59.0961 33.358V35.22C58.9001 35.2573 58.7228 35.2853 58.5641 35.304C58.4054 35.3227 58.2654 35.332 58.1441 35.332C57.7241 35.332 57.4021 35.248 57.1781 35.08C56.9634 34.912 56.8281 34.6833 56.7721 34.394L56.7301 34.072C56.4034 34.492 56.0114 34.814 55.5541 35.038C55.0968 35.2527 54.6254 35.36 54.1401 35.36C53.6548 35.36 53.2161 35.2573 52.8241 35.052C52.4414 34.8467 52.1381 34.5713 51.9141 34.226C51.6901 33.8713 51.5781 33.47 51.5781 33.022ZM56.0301 33.302C56.2634 33.1153 56.3801 32.924 56.3801 32.728V32.07C56.1841 31.9953 55.9694 31.9393 55.7361 31.902C55.5121 31.8553 55.3068 31.832 55.1201 31.832C54.7001 31.832 54.3548 31.9253 54.0841 32.112C53.8228 32.2987 53.6921 32.5367 53.6921 32.826C53.6921 33.078 53.7901 33.2973 53.9861 33.484C54.1914 33.6613 54.4621 33.75 54.7981 33.75C55.0221 33.75 55.2461 33.708 55.4701 33.624C55.6941 33.54 55.8808 33.4327 56.0301 33.302Z" fill="#F8B235"/>
<path d="M71.8632 35.22H69.6232V31.09C69.6232 30.614 69.5346 30.264 69.3572 30.04C69.1799 29.816 68.9512 29.704 68.6712 29.704C68.3726 29.704 68.0786 29.8253 67.7892 30.068C67.4999 30.3107 67.2946 30.6233 67.1732 31.006V35.22H64.9332V31.09C64.9332 30.6047 64.8446 30.2547 64.6672 30.04C64.4899 29.816 64.2612 29.704 63.9812 29.704C63.6826 29.704 63.3886 29.8253 63.0992 30.068C62.8192 30.3107 62.6139 30.6233 62.4832 31.006V35.22H60.2432V27.87H62.2592V29.102C62.5299 28.6633 62.8986 28.3273 63.3652 28.094C63.8319 27.8513 64.3686 27.73 64.9752 27.73C65.5819 27.73 66.0486 27.8747 66.3752 28.164C66.7019 28.444 66.9119 28.7753 67.0052 29.158C67.2852 28.71 67.6539 28.36 68.1112 28.108C68.5779 27.856 69.1006 27.73 69.6792 27.73C70.1459 27.73 70.5192 27.8187 70.7992 27.996C71.0886 28.164 71.3079 28.388 71.4572 28.668C71.6159 28.948 71.7232 29.2513 71.7792 29.578C71.8352 29.8953 71.8632 30.208 71.8632 30.516V35.22Z" fill="#F8B235"/>
<path d="M78.0735 34.828C77.7655 34.9587 77.4109 35.08 77.0095 35.192C76.6175 35.304 76.2209 35.36 75.8195 35.36C75.4462 35.36 75.1055 35.2993 74.7975 35.178C74.4895 35.0473 74.2422 34.8373 74.0555 34.548C73.8689 34.2587 73.7755 33.876 73.7755 33.4V29.564H72.8375V27.87H73.7755V25.532H76.0155V27.87H77.5135V29.564H76.0155V32.63C76.0155 32.8727 76.0762 33.05 76.1975 33.162C76.3189 33.2647 76.4729 33.316 76.6595 33.316C76.8275 33.316 77.0002 33.288 77.1775 33.232C77.3549 33.176 77.5089 33.1153 77.6395 33.05L78.0735 34.828Z" fill="#F8B235"/>
<path d="M81.734 35.248C81.0807 35.248 80.5113 35.08 80.026 34.744C79.5407 34.408 79.158 33.96 78.878 33.4C78.6073 32.84 78.472 32.2193 78.472 31.538C78.472 30.8193 78.6167 30.1753 78.906 29.606C79.1953 29.0273 79.5967 28.57 80.11 28.234C80.6233 27.898 81.216 27.73 81.888 27.73C82.4387 27.73 82.924 27.8513 83.344 28.094C83.764 28.3273 84.1 28.654 84.352 29.074V27.87H86.298V34.716C86.298 35.4627 86.116 36.1067 85.752 36.648C85.3973 37.1893 84.898 37.6047 84.254 37.894C83.6193 38.1927 82.882 38.342 82.042 38.342C81.258 38.342 80.5813 38.2113 80.012 37.95C79.452 37.698 78.962 37.3387 78.542 36.872L79.746 35.654C80.0167 35.962 80.3527 36.2047 80.754 36.382C81.1647 36.5687 81.594 36.662 82.042 36.662C82.406 36.662 82.7373 36.5967 83.036 36.466C83.344 36.3353 83.5913 36.1253 83.778 35.836C83.9647 35.556 84.058 35.1827 84.058 34.716V34.002C83.834 34.4127 83.5073 34.7253 83.078 34.94C82.658 35.1453 82.21 35.248 81.734 35.248ZM82.504 33.47C82.8493 33.47 83.1573 33.3767 83.428 33.19C83.6987 32.994 83.9087 32.7467 84.058 32.448V30.908C83.9087 30.5253 83.68 30.2173 83.372 29.984C83.064 29.7507 82.7373 29.634 82.392 29.634C82.0747 29.634 81.79 29.7273 81.538 29.914C81.2953 30.0913 81.104 30.3293 80.964 30.628C80.824 30.9267 80.754 31.2487 80.754 31.594C80.754 32.1353 80.922 32.5833 81.258 32.938C81.594 33.2927 82.0093 33.47 82.504 33.47Z" fill="#F8B235"/>
<path d="M91.3471 35.36C90.5164 35.36 89.8071 35.1873 89.2191 34.842C88.6311 34.4967 88.1784 34.0393 87.8611 33.47C87.5531 32.9007 87.3991 32.2847 87.3991 31.622C87.3991 30.9127 87.5531 30.264 87.8611 29.676C88.1691 29.088 88.6171 28.6167 89.2051 28.262C89.7931 27.9073 90.5071 27.73 91.3471 27.73C92.1777 27.73 92.8871 27.9073 93.4751 28.262C94.0631 28.6167 94.5064 29.0833 94.8051 29.662C95.1131 30.2407 95.2671 30.8613 95.2671 31.524C95.2671 31.7947 95.2484 32.0327 95.2111 32.238H89.7791C89.8164 32.7327 89.9937 33.1107 90.3111 33.372C90.6377 33.624 91.0064 33.75 91.4171 33.75C91.7437 33.75 92.0564 33.6707 92.3551 33.512C92.6537 33.3533 92.8591 33.1387 92.9711 32.868L94.8751 33.4C94.5857 33.9787 94.1331 34.45 93.5171 34.814C92.9104 35.178 92.1871 35.36 91.3471 35.36ZM89.7231 30.866H92.9151C92.8684 30.3993 92.6957 30.0307 92.3971 29.76C92.1077 29.48 91.7484 29.34 91.3191 29.34C90.8897 29.34 90.5257 29.48 90.2271 29.76C89.9377 30.04 89.7697 30.4087 89.7231 30.866Z" fill="#F8B235"/>
<path d="M107.902 35.22H105.662V31.09C105.662 30.614 105.574 30.264 105.396 30.04C105.219 29.816 104.99 29.704 104.71 29.704C104.412 29.704 104.118 29.8253 103.828 30.068C103.539 30.3107 103.334 30.6233 103.212 31.006V35.22H100.972V31.09C100.972 30.6047 100.884 30.2547 100.706 30.04C100.529 29.816 100.3 29.704 100.02 29.704C99.7216 29.704 99.4276 29.8253 99.1383 30.068C98.8583 30.3107 98.653 30.6233 98.5223 31.006V35.22H96.2823V27.87H98.2983V29.102C98.569 28.6633 98.9376 28.3273 99.4043 28.094C99.871 27.8513 100.408 27.73 101.014 27.73C101.621 27.73 102.088 27.8747 102.414 28.164C102.741 28.444 102.951 28.7753 103.044 29.158C103.324 28.71 103.693 28.36 104.15 28.108C104.617 27.856 105.14 27.73 105.718 27.73C106.185 27.73 106.558 27.8187 106.838 27.996C107.128 28.164 107.347 28.388 107.496 28.668C107.655 28.948 107.762 29.2513 107.818 29.578C107.874 29.8953 107.902 30.208 107.902 30.516V35.22Z" fill="#F8B235"/>
<path d="M112.88 35.36C112.05 35.36 111.34 35.1873 110.752 34.842C110.164 34.4967 109.712 34.0393 109.394 33.47C109.086 32.9007 108.932 32.2847 108.932 31.622C108.932 30.9127 109.086 30.264 109.394 29.676C109.702 29.088 110.15 28.6167 110.738 28.262C111.326 27.9073 112.04 27.73 112.88 27.73C113.711 27.73 114.42 27.9073 115.008 28.262C115.596 28.6167 116.04 29.0833 116.338 29.662C116.646 30.2407 116.8 30.8613 116.8 31.524C116.8 31.7947 116.782 32.0327 116.744 32.238H111.312C111.35 32.7327 111.527 33.1107 111.844 33.372C112.171 33.624 112.54 33.75 112.95 33.75C113.277 33.75 113.59 33.6707 113.888 33.512C114.187 33.3533 114.392 33.1387 114.504 32.868L116.408 33.4C116.119 33.9787 115.666 34.45 115.05 34.814C114.444 35.178 113.72 35.36 112.88 35.36ZM111.256 30.866H114.448C114.402 30.3993 114.229 30.0307 113.93 29.76C113.641 29.48 113.282 29.34 112.852 29.34C112.423 29.34 112.059 29.48 111.76 29.76C111.471 30.04 111.303 30.4087 111.256 30.866Z" fill="#F8B235"/>
<path d="M117.815 27.03V25H120.056V27.03H117.815ZM117.815 35.22V27.87H120.056V35.22H117.815Z" fill="#F8B235"/>
<path d="M128.673 35.22H126.433V31.09C126.433 30.6047 126.34 30.2547 126.153 30.04C125.976 29.816 125.738 29.704 125.439 29.704C125.131 29.704 124.818 29.8253 124.501 30.068C124.184 30.3107 123.96 30.6233 123.829 31.006V35.22H121.589V27.87H123.605V29.102C123.876 28.6727 124.258 28.3367 124.753 28.094C125.248 27.8513 125.817 27.73 126.461 27.73C126.937 27.73 127.32 27.8187 127.609 27.996C127.908 28.164 128.132 28.388 128.281 28.668C128.44 28.9387 128.542 29.2373 128.589 29.564C128.645 29.8907 128.673 30.208 128.673 30.516V35.22Z" fill="#F8B235"/>
<path d="M129.741 31.538C129.741 30.8287 129.877 30.1893 130.147 29.62C130.427 29.0413 130.81 28.584 131.295 28.248C131.79 27.9027 132.355 27.73 132.989 27.73C133.503 27.73 133.965 27.856 134.375 28.108C134.795 28.3507 135.117 28.6727 135.341 29.074V25H137.581V32.728C137.581 32.952 137.614 33.1107 137.679 33.204C137.754 33.2973 137.88 33.3487 138.057 33.358V35.22C137.665 35.2947 137.348 35.332 137.105 35.332C136.723 35.332 136.41 35.248 136.167 35.08C135.925 34.912 135.78 34.6787 135.733 34.38L135.691 34.002C135.43 34.4593 135.075 34.8 134.627 35.024C134.179 35.248 133.708 35.36 133.213 35.36C132.541 35.36 131.944 35.1967 131.421 34.87C130.899 34.534 130.488 34.0767 130.189 33.498C129.891 32.9193 129.741 32.266 129.741 31.538ZM135.355 32.448V30.908C135.215 30.5347 134.987 30.2313 134.669 29.998C134.361 29.7553 134.039 29.634 133.703 29.634C133.386 29.634 133.101 29.7227 132.849 29.9C132.597 30.0773 132.401 30.3153 132.261 30.614C132.121 30.9127 132.051 31.2347 132.051 31.58C132.051 32.1213 132.215 32.574 132.541 32.938C132.877 33.2927 133.302 33.47 133.815 33.47C134.123 33.47 134.417 33.3813 134.697 33.204C134.987 33.0173 135.206 32.7653 135.355 32.448Z" fill="#F8B235"/>
<path d="M142.835 35.36C142.005 35.36 141.295 35.1873 140.707 34.842C140.119 34.4967 139.667 34.0393 139.349 33.47C139.041 32.9007 138.887 32.2847 138.887 31.622C138.887 30.9127 139.041 30.264 139.349 29.676C139.657 29.088 140.105 28.6167 140.693 28.262C141.281 27.9073 141.995 27.73 142.835 27.73C143.666 27.73 144.375 27.9073 144.963 28.262C145.551 28.6167 145.995 29.0833 146.293 29.662C146.601 30.2407 146.755 30.8613 146.755 31.524C146.755 31.7947 146.737 32.0327 146.699 32.238H141.267C141.305 32.7327 141.482 33.1107 141.799 33.372C142.126 33.624 142.495 33.75 142.905 33.75C143.232 33.75 143.545 33.6707 143.843 33.512C144.142 33.3533 144.347 33.1387 144.459 32.868L146.363 33.4C146.074 33.9787 145.621 34.45 145.005 34.814C144.399 35.178 143.675 35.36 142.835 35.36ZM141.211 30.866H144.403C144.357 30.3993 144.184 30.0307 143.885 29.76C143.596 29.48 143.237 29.34 142.807 29.34C142.378 29.34 142.014 29.48 141.715 29.76C141.426 30.04 141.258 30.4087 141.211 30.866Z" fill="#F8B235"/>
<path d="M35.114 40.28V50.22H32.818V46.146H28.856V50.22H26.56V40.28H28.856V44.13H32.818V40.28H35.114Z" fill="#F8B235"/>
<path d="M36.2793 48.022C36.2793 47.5367 36.4146 47.112 36.6853 46.748C36.9559 46.384 37.3293 46.0993 37.8053 45.894C38.2813 45.6793 38.8273 45.572 39.4433 45.572C39.7419 45.572 40.0359 45.6 40.3253 45.656C40.6146 45.7027 40.8666 45.7727 41.0813 45.866V45.544C41.0813 44.7133 40.5913 44.298 39.6113 44.298C39.2006 44.298 38.8133 44.368 38.4493 44.508C38.0946 44.648 37.7166 44.8487 37.3153 45.11L36.6433 43.682C37.6139 43.0473 38.6779 42.73 39.8353 42.73C40.9366 42.73 41.7906 42.996 42.3973 43.528C43.0133 44.0507 43.3213 44.8113 43.3213 45.81V47.728C43.3213 47.952 43.3539 48.1107 43.4193 48.204C43.4939 48.2973 43.6199 48.3487 43.7973 48.358V50.22C43.6013 50.2573 43.4239 50.2853 43.2653 50.304C43.1066 50.3227 42.9666 50.332 42.8453 50.332C42.4253 50.332 42.1033 50.248 41.8793 50.08C41.6646 49.912 41.5293 49.6833 41.4733 49.394L41.4313 49.072C41.1046 49.492 40.7126 49.814 40.2553 50.038C39.7979 50.2527 39.3266 50.36 38.8413 50.36C38.3559 50.36 37.9173 50.2573 37.5253 50.052C37.1426 49.8467 36.8393 49.5713 36.6153 49.226C36.3913 48.8713 36.2793 48.47 36.2793 48.022ZM40.7313 48.302C40.9646 48.1153 41.0813 47.924 41.0813 47.728V47.07C40.8853 46.9953 40.6706 46.9393 40.4373 46.902C40.2133 46.8553 40.0079 46.832 39.8213 46.832C39.4013 46.832 39.0559 46.9253 38.7853 47.112C38.5239 47.2987 38.3933 47.5367 38.3933 47.826C38.3933 48.078 38.4913 48.2973 38.6873 48.484C38.8926 48.6613 39.1633 48.75 39.4993 48.75C39.7233 48.75 39.9473 48.708 40.1713 48.624C40.3953 48.54 40.5819 48.4327 40.7313 48.302Z" fill="#F8B235"/>
<path d="M52.0284 50.22H49.7884V46.09C49.7884 45.6047 49.6951 45.2547 49.5084 45.04C49.3311 44.816 49.0931 44.704 48.7944 44.704C48.4864 44.704 48.1737 44.8253 47.8564 45.068C47.5391 45.3107 47.3151 45.6233 47.1844 46.006V50.22H44.9444V42.87H46.9604V44.102C47.2311 43.6727 47.6137 43.3367 48.1084 43.094C48.6031 42.8513 49.1724 42.73 49.8164 42.73C50.2924 42.73 50.6751 42.8187 50.9644 42.996C51.2631 43.164 51.4871 43.388 51.6364 43.668C51.7951 43.9387 51.8977 44.2373 51.9444 44.564C52.0004 44.8907 52.0284 45.208 52.0284 45.516V50.22Z" fill="#F8B235"/>
<path d="M60.6007 50.22H58.3607V46.09C58.3607 45.6047 58.2673 45.2547 58.0807 45.04C57.9033 44.816 57.6653 44.704 57.3667 44.704C57.0587 44.704 56.746 44.8253 56.4287 45.068C56.1113 45.3107 55.8873 45.6233 55.7567 46.006V50.22H53.5167V42.87H55.5327V44.102C55.8033 43.6727 56.186 43.3367 56.6807 43.094C57.1753 42.8513 57.7447 42.73 58.3887 42.73C58.8647 42.73 59.2473 42.8187 59.5367 42.996C59.8353 43.164 60.0593 43.388 60.2087 43.668C60.3673 43.9387 60.47 44.2373 60.5167 44.564C60.5727 44.8907 60.6007 45.208 60.6007 45.516V50.22Z" fill="#F8B235"/>
<path d="M65.5889 50.36C64.7489 50.36 64.0349 50.1827 63.4469 49.828C62.8683 49.4733 62.4249 49.0067 62.1169 48.428C61.8089 47.8493 61.6549 47.224 61.6549 46.552C61.6549 45.8707 61.8089 45.2407 62.1169 44.662C62.4249 44.0833 62.8729 43.6167 63.4609 43.262C64.0489 42.9073 64.7583 42.73 65.5889 42.73C66.4196 42.73 67.1289 42.9073 67.7169 43.262C68.3049 43.6167 68.7529 44.0833 69.0609 44.662C69.3689 45.2407 69.5229 45.8707 69.5229 46.552C69.5229 47.224 69.3689 47.8493 69.0609 48.428C68.7529 49.0067 68.3049 49.4733 67.7169 49.828C67.1289 50.1827 66.4196 50.36 65.5889 50.36ZM63.9509 46.552C63.9509 47.1213 64.1049 47.5833 64.4129 47.938C64.7303 48.2927 65.1223 48.47 65.5889 48.47C66.0463 48.47 66.4289 48.2927 66.7369 47.938C67.0543 47.5833 67.2129 47.1213 67.2129 46.552C67.2129 45.9827 67.0543 45.5207 66.7369 45.166C66.4289 44.8113 66.0463 44.634 65.5889 44.634C65.1223 44.634 64.7303 44.8113 64.4129 45.166C64.1049 45.5207 63.9509 45.9827 63.9509 46.552Z" fill="#F8B235"/>
<path d="M72.2918 50.22L69.6878 42.87H71.9978L73.6078 48.204L75.2178 42.87H77.3178L74.7278 50.22H72.2918Z" fill="#F8B235"/>
<path d="M81.435 50.36C80.6043 50.36 79.895 50.1873 79.307 49.842C78.719 49.4967 78.2663 49.0393 77.949 48.47C77.641 47.9007 77.487 47.2847 77.487 46.622C77.487 45.9127 77.641 45.264 77.949 44.676C78.257 44.088 78.705 43.6167 79.293 43.262C79.881 42.9073 80.595 42.73 81.435 42.73C82.2656 42.73 82.975 42.9073 83.563 43.262C84.151 43.6167 84.5943 44.0833 84.893 44.662C85.201 45.2407 85.355 45.8613 85.355 46.524C85.355 46.7947 85.3363 47.0327 85.299 47.238H79.867C79.9043 47.7327 80.0816 48.1107 80.399 48.372C80.7256 48.624 81.0943 48.75 81.505 48.75C81.8316 48.75 82.1443 48.6707 82.443 48.512C82.7416 48.3533 82.947 48.1387 83.059 47.868L84.963 48.4C84.6736 48.9787 84.221 49.45 83.605 49.814C82.9983 50.178 82.275 50.36 81.435 50.36ZM79.811 45.866H83.003C82.9563 45.3993 82.7836 45.0307 82.485 44.76C82.1956 44.48 81.8363 44.34 81.407 44.34C80.9776 44.34 80.6136 44.48 80.315 44.76C80.0256 45.04 79.8576 45.4087 79.811 45.866Z" fill="#F8B235"/>
<path d="M91.0322 44.788C90.4909 44.7973 90.0009 44.886 89.5622 45.054C89.1235 45.222 88.8062 45.474 88.6102 45.81V50.22H86.3702V42.87H88.4282V44.354C88.6802 43.8593 89.0069 43.472 89.4082 43.192C89.8095 42.912 90.2295 42.7673 90.6682 42.758C90.8549 42.758 90.9762 42.7627 91.0322 42.772V44.788Z" fill="#F8B235"/>
</svg>
