<svg width="70" height="70" viewBox="0 0 70 70" fill="none" xmlns="http://www.w3.org/2000/svg">
<path d="M69.3115 15.1368C37.5835 46.8644 46.9589 37.4928 15.1954 69.2531C14.2252 70.2234 12.6511 70.2241 11.6809 69.2539L0.786753 58.3596C-0.183505 57.3894 -0.184436 55.8171 0.785821 54.8466C9.3526 46.2799 46.3385 9.2942 54.9053 0.727284C55.8756 -0.242971 57.4479 -0.242195 58.4183 0.728216L69.3124 11.6222C70.2825 12.5926 70.2817 14.1666 69.3115 15.1368Z" fill="#FFD89D"/>
<path d="M67.5186 16.8801L56.7974 27.6013L34.0488 21.5341L44.7685 10.8145L67.5186 16.8801Z" fill="#57B1D8"/>
<path d="M69.2878 15.2051C37.56 46.9329 46.9353 37.5611 15.1719 69.3214C14.2017 70.2917 12.6276 70.2925 11.6574 69.3222L0.763313 58.428C-0.206941 57.4577 -0.207873 55.8854 0.762381 54.915C9.32913 46.3482 46.3149 9.36242 54.8817 0.795645C55.8519 -0.174612 57.4242 -0.173836 58.3946 0.796576L69.2887 11.6905C70.2588 12.6608 70.258 14.2348 69.2878 15.2051Z" fill="#FFD89D"/>
<path d="M64.662 8.84446C51.869 27.4584 33.3595 40.9888 10.6719 44.9299C15.2397 40.3621 50.529 5.07276 54.8551 0.746679C55.8257 -0.223886 57.3988 -0.222333 58.3678 0.748232C63.4453 5.82421 63.2434 5.62202 64.4823 6.86186C65.0125 7.39265 65.0869 8.22625 64.662 8.84446Z" fill="#FFD89D"/>
<path d="M67.5186 16.8801L56.7974 27.6013L34.0488 21.5341L44.7685 10.8145L67.5186 16.8801Z" fill="#57B1D8"/>
<path d="M38.7037 45.6965C37.355 47.0452 29.2962 55.104 27.9825 56.4178L5.23242 50.3506L15.9521 39.6309L38.7037 45.6965Z" fill="#57B1D8"/>
<path d="M60.1331 14.9122C57.3254 18.3861 53.9106 22.1161 49.8404 25.7468L34.0645 21.54C37.8877 17.7168 41.5557 14.0472 44.7842 10.8203L60.1331 14.9122Z" fill="#57B1D8"/>
<path d="M23.35 41.6022C20.8956 42.4707 18.3987 43.223 15.8253 43.8527C14.2978 44.2265 13.2426 42.3581 14.3545 41.2462L15.9659 39.6348L23.35 41.6022Z" fill="#57B1D8"/>
</svg>
